<svg xmlns="http://www.w3.org/2000/svg" xmlns:xlink="http://www.w3.org/1999/xlink" width="500" zoomAndPan="magnify" viewBox="0 0 375 374.999991" height="500" preserveAspectRatio="xMidYMid meet" version="1.0"><defs><g/></defs><path fill="#00acb4" d="M 147.699219 141.421875 C 143.8125 143.972656 136.566406 151.277344 133.613281 155.683594 C 128.335938 163.507812 124.277344 175.160156 124.277344 182.523438 L 124.277344 185.941406 L 151.523438 185.941406 L 151.523438 163.101562 C 151.523438 150.523438 151.292969 140.089844 151.003906 139.914062 C 150.769531 139.742188 149.261719 140.4375 147.699219 141.421875 Z M 147.699219 141.421875 " fill-opacity="1" fill-rule="nonzero"/><path fill="#00acb4" d="M 42.367188 193.828125 C 41.730469 194.464844 41.902344 199.160156 42.773438 203.972656 C 44.6875 214.695312 50.367188 225.1875 58.367188 232.722656 C 68.105469 241.941406 78.019531 246.464844 91.582031 248.027344 C 104.222656 249.417969 119.117188 245.1875 129.320312 237.363281 C 133.320312 234.289062 139.582031 227.738281 142.25 223.914062 C 147.871094 215.796875 151.582031 203.101562 151.003906 194.175781 C 150.945312 193.652344 147.871094 193.480469 137.667969 193.480469 L 124.394531 193.480469 L 123.816406 197.535156 C 122.074219 209.128906 112.742188 218.695312 101.089844 220.78125 C 86.132812 223.390625 70.945312 212.261719 69.324219 197.421875 L 68.917969 193.769531 L 55.816406 193.59375 C 48.628906 193.535156 42.597656 193.652344 42.367188 193.828125 Z M 42.367188 193.828125 " fill-opacity="1" fill-rule="nonzero"/><g fill="#ededed" fill-opacity="1"><g transform="translate(171.071585, 229.697857)"><g><path d="M 21.933594 0.949219 C 32.992188 0.949219 40.222656 -6.1875 40.222656 -16.082031 L 40.222656 -41.664062 L 30.511719 -41.664062 L 30.511719 -16.789062 C 30.511719 -11.703125 27.417969 -7.84375 21.933594 -7.84375 C 16.328125 -7.84375 13.296875 -11.734375 13.296875 -16.789062 L 13.296875 -41.664062 L 3.613281 -41.664062 L 3.613281 -16.082031 C 3.613281 -5.574219 11.578125 0.949219 21.933594 0.949219 Z M 21.933594 0.949219 "/></g></g></g><g fill="#ededed" fill-opacity="1"><g transform="translate(218.545833, 229.697857)"><g><path d="M 26.285156 0 L 43.5625 -41.695312 L 33.300781 -41.695312 L 21.996094 -12.773438 L 21.84375 -12.742188 L 10.539062 -41.695312 L 0.304688 -41.695312 L 17.554688 0 Z M 26.285156 0 "/></g></g></g><g fill="#ededed" fill-opacity="1"><g transform="translate(266.050714, 229.697857)"><g><path d="M 13.96875 0 L 13.96875 -41.664062 L 4.257812 -41.664062 L 4.257812 0 Z M 13.96875 0 "/></g></g></g><g fill="#ededed" fill-opacity="1"><g transform="translate(287.94697, 229.697857)"><g><path d="M 33.914062 0 L 33.914062 -8.640625 L 13.96875 -8.640625 L 13.96875 -17.09375 L 30.847656 -17.09375 L 30.847656 -25.183594 L 13.96875 -25.183594 L 13.96875 -33.054688 L 33.636719 -33.054688 L 33.636719 -41.664062 L 4.257812 -41.664062 L 4.257812 0 Z M 33.914062 0 "/></g></g></g></svg>