<svg width="62" height="62" viewBox="0 0 62 62" fill="none" xmlns="http://www.w3.org/2000/svg">
<rect width="62" height="62" rx="12" fill="#1F1F1F"/>
<path d="M51 27.0817H46.8867V39.7719H44.5117V27.0817H40.4083V25.0017H51V27.0817ZM39.58 39.7719H31.545V25.0017H39.2617V27.0817H33.92V31.2654H38.8417V33.3354H33.92V37.7035H39.58V39.7719ZM28.4 39.7719H25.8033L18.9667 28.9152C18.7957 28.645 18.6516 28.3585 18.5367 28.0597H18.4767C18.53 28.3768 18.5567 29.0528 18.5567 30.0895V39.7719H16.2617V25.0017H19.0267L25.635 35.6033C25.9133 36.0412 26.0933 36.3448 26.1733 36.5092H26.2133C26.1467 36.1183 26.1133 35.454 26.1133 34.5214V25H28.4V39.7719ZM13.895 38.6094C13.895 38.7921 13.8575 38.9731 13.7847 39.1419C13.7119 39.3107 13.6052 39.4641 13.4707 39.5933C13.3362 39.7224 13.1765 39.8248 13.0008 39.8946C12.8251 39.9644 12.6368 40.0002 12.4467 40C12.2565 40 12.0683 39.964 11.8926 39.894C11.717 39.824 11.5575 39.7214 11.4231 39.5921C11.2887 39.4628 11.1822 39.3093 11.1096 39.1404C11.037 38.9715 10.9998 38.7905 11 38.6077C11.0005 38.2392 11.1531 37.8859 11.4243 37.6255C11.6956 37.365 12.0633 37.2187 12.4467 37.2187C12.6368 37.2185 12.8251 37.2543 13.0008 37.3241C13.1765 37.3939 13.3362 37.4963 13.4707 37.6255C13.6052 37.7546 13.7119 37.908 13.7847 38.0768C13.8575 38.2457 13.895 38.4266 13.895 38.6094Z" fill="#EDEDED"/>
</svg>
