<svg width="510" height="199" viewBox="0 0 510 199" fill="none" xmlns="http://www.w3.org/2000/svg">
<g clip-path="url(#clip0_134_631)">
<path d="M147.108 165.535C143.214 168.355 138.533 170 133.5 170C119.978 170 109 158.126 109 143.5C109 128.874 119.978 117 133.5 117C147.022 117 158 128.874 158 143.5C158 151.412 154.786 158.519 149.697 163.377L127.822 132.9H123.7V154.091H126.997V137.429L147.108 165.535ZM140.305 146.691L143.572 151.242V132.9H140.305V146.691Z" fill="#151515"/>
</g>
<g clip-path="url(#clip1_134_631)">
<path d="M416.502 119.4C409.436 119.4 405.019 123.2 403.252 130.8C405.902 127 408.994 125.575 412.527 126.525C414.544 127.066 415.983 128.639 417.58 130.382C420.179 133.218 423.185 136.5 429.752 136.5C436.819 136.5 441.236 132.7 443.002 125.1C440.352 128.9 437.261 130.325 433.727 129.375C431.711 128.833 430.271 127.261 428.675 125.518C426.078 122.682 423.072 119.4 416.502 119.4ZM403.252 136.5C396.186 136.5 391.769 140.3 390.002 147.9C392.652 144.1 395.744 142.675 399.277 143.625C401.294 144.166 402.733 145.739 404.33 147.482C406.929 150.318 409.935 153.6 416.502 153.6C423.569 153.6 427.986 149.8 429.752 142.2C427.102 146 424.011 147.425 420.477 146.475C418.461 145.933 417.021 144.361 415.425 142.618C412.828 139.782 409.822 136.5 403.252 136.5Z" fill="#151515"/>
</g>
<g clip-path="url(#clip2_134_631)">
<path d="M493.266 28.2669C490.159 11.7594 482.813 6.33379 482.024 4.26C481.336 3.09442 480.721 1.43775 480.217 0C480.129 1.46437 480.082 2.02646 478.931 3.50267C477.154 5.17708 468.021 14.3953 467.279 33.1452C466.586 50.6348 477.776 61.057 479.295 62.3853L479.467 62.5332C479.784 65.3488 480.054 68.1716 480.279 71H481.461C481.741 67.947 482.159 64.9177 482.715 61.9179C483.74 61.0422 484.2 60.5482 484.804 59.8678C487.668 56.6796 489.944 52.8036 491.485 48.4904C493.026 44.1773 493.798 39.523 493.75 34.8285C493.775 32.4204 493.497 29.9117 493.266 28.2669ZM480.148 52.5104C480.148 52.5104 480.148 27.9829 480.824 27.9858C481.348 27.9858 482.029 59.6252 482.029 59.6252C481.092 59.4921 480.148 54.4185 480.148 52.5104Z" fill="#151515"/>
</g>
<rect x="262" y="137" width="62" height="62" rx="12" fill="#1F1F1F"/>
<path d="M313 164.082H308.887V176.772H306.512V164.082H302.408V162.002H313V164.082ZM301.58 176.772H293.545V162.002H301.262V164.082H295.92V168.265H300.842V170.335H295.92V174.704H301.58V176.772ZM290.4 176.772H287.803L280.967 165.915C280.796 165.645 280.652 165.358 280.537 165.06H280.477C280.53 165.377 280.557 166.053 280.557 167.089V176.772H278.262V162.002H281.027L287.635 172.603C287.913 173.041 288.093 173.345 288.173 173.509H288.213C288.147 173.118 288.113 172.454 288.113 171.521V162H290.4V176.772ZM275.895 175.609C275.895 175.792 275.858 175.973 275.785 176.142C275.712 176.311 275.605 176.464 275.471 176.593C275.336 176.722 275.177 176.825 275.001 176.895C274.825 176.964 274.637 177 274.447 177C274.257 177 274.068 176.964 273.893 176.894C273.717 176.824 273.557 176.721 273.423 176.592C273.289 176.463 273.182 176.309 273.11 176.14C273.037 175.971 273 175.79 273 175.608C273 175.239 273.153 174.886 273.424 174.625C273.696 174.365 274.063 174.219 274.447 174.219C274.637 174.219 274.825 174.254 275.001 174.324C275.177 174.394 275.336 174.496 275.471 174.625C275.605 174.755 275.712 174.908 275.785 175.077C275.858 175.246 275.895 175.427 275.895 175.609Z" fill="#EDEDED"/>
<rect y="5" width="62" height="62" rx="31" fill="#1F1F1F"/>
<path d="M17.785 46L20.08 23.71H25.03L28.96 36.25L30.115 41.02L31.15 36.25L34.885 23.71H39.625L42.295 46H38.785L37.465 32.485L37.045 26.335L35.515 32.485L31.12 46.21H29.005L24.385 32.485L22.765 26.335L22.33 32.485L21.16 46H17.785Z" fill="#F8F8F8"/>
<defs>
<clipPath id="clip0_134_631">
<rect width="49" height="53" fill="white" transform="translate(109 117)"/>
</clipPath>
<clipPath id="clip1_134_631">
<rect width="53" height="57" fill="white" transform="translate(390 108)"/>
</clipPath>
<clipPath id="clip2_134_631">
<rect width="59" height="71" fill="white" transform="translate(451)"/>
</clipPath>
</defs>
</svg>
